<?xml version="1.0" standalone="no"?>
<!DOCTYPE svg PUBLIC "-//W3C//DTD SVG 20010904//EN"
 "http://www.w3.org/TR/2001/REC-SVG-20010904/DTD/svg10.dtd">
<svg version="1.0" xmlns="http://www.w3.org/2000/svg"
 width="989.000000pt" height="411.000000pt" viewBox="0 0 989.000000 411.000000"
 preserveAspectRatio="xMidYMid meet">

<g transform="translate(0.000000,411.000000) scale(0.100000,-0.100000)"
fill="#000000" stroke="none">
<path d="M1740 3245 c-162 -34 -269 -93 -385 -209 -213 -214 -273 -484 -174
-780 16 -49 79 -184 139 -300 116 -225 156 -334 168 -456 l7 -75 380 0 380 0
6 70 c13 141 54 252 175 475 137 254 175 370 175 540 0 130 -24 231 -83 350
-34 68 -61 103 -133 176 -80 81 -103 98 -195 142 -58 28 -128 55 -157 61 -91
18 -233 22 -303 6z m282 -60 c223 -47 432 -237 504 -459 23 -68 27 -100 28
-201 1 -175 -14 -223 -164 -520 -77 -154 -135 -282 -150 -332 l-24 -83 -342 0
-343 0 -11 43 c-22 88 -66 188 -161 367 -54 102 -113 228 -131 280 -31 90 -32
102 -32 235 0 125 3 148 26 213 40 112 97 199 186 284 165 158 387 220 614
173z m186 -1677 l-3 -33 -330 0 -330 0 -3 33 -3 32 336 0 336 0 -3 -32z"/>
<path d="M1554 2622 c-51 -33 -40 -145 14 -159 35 -9 62 26 62 81 0 64 -38
104 -76 78z"/>
<path d="M2134 2605 c-32 -50 -9 -145 36 -145 27 0 60 47 60 85 0 38 -33 85
-60 85 -11 0 -27 -11 -36 -25z"/>
<path d="M1560 2391 c-15 -4 -29 -18 -35 -35 -8 -23 -4 -37 19 -82 16 -30 48
-70 70 -89 148 -121 415 -109 545 25 76 78 90 164 31 181 -14 4 -155 7 -315 7
-159 0 -301 -3 -315 -7z"/>
<path d="M3010 2090 l0 -390 290 0 290 0 0 70 0 70 -205 0 -205 0 0 100 0 100
185 0 185 0 0 65 0 65 -185 0 -185 0 0 85 0 85 205 0 206 0 -3 68 -3 67 -287
3 -288 2 0 -390z"/>
<path d="M4090 2340 l0 -141 -37 30 c-47 37 -105 51 -171 40 -132 -20 -205
-118 -206 -274 0 -100 22 -168 75 -228 81 -93 231 -104 317 -24 l32 31 0 -37
0 -37 70 0 70 0 0 390 0 390 -75 0 -75 0 0 -140z m-56 -201 c41 -32 58 -74 59
-148 1 -79 -14 -130 -49 -162 -20 -19 -36 -24 -79 -24 -57 0 -92 22 -120 75
-40 77 -22 206 36 254 40 34 113 36 153 5z"/>
<path d="M4960 2410 l0 -70 115 0 115 0 2 -317 3 -318 83 -3 82 -3 0 321 0
320 115 0 115 0 0 70 0 70 -315 0 -315 0 0 -70z"/>
<path d="M6770 2090 l0 -390 75 0 75 0 0 98 c0 97 1 99 31 128 25 24 32 27 39
14 5 -8 40 -64 77 -125 l69 -110 87 -3 c48 -1 87 0 87 5 0 4 -49 82 -110 173
-60 92 -110 172 -110 178 0 5 46 53 103 106 l102 96 -91 0 -90 0 -93 -95 c-52
-52 -95 -95 -97 -95 -2 0 -4 92 -4 205 l0 205 -75 0 -75 0 0 -390z"/>
<path d="M5744 2268 c-65 -7 -127 -33 -156 -65 -18 -19 -48 -84 -48 -103 0 -6
30 -10 73 -10 73 0 73 0 88 33 11 24 24 35 58 46 82 26 153 -18 137 -84 -8
-30 -40 -42 -143 -55 -167 -22 -226 -68 -226 -176 0 -68 26 -113 83 -142 63
-33 175 -28 245 11 26 15 49 27 51 27 1 0 4 -10 6 -22 3 -21 9 -23 73 -26 l70
-3 -3 198 c-1 109 -5 217 -8 240 -6 48 -33 87 -76 109 -39 20 -147 31 -224 22z
m144 -403 c-10 -29 -22 -45 -48 -57 -39 -20 -101 -23 -131 -7 -29 15 -42 57
-28 90 12 30 46 46 154 70 l60 14 3 -35 c2 -20 -3 -53 -10 -75z"/>
<path d="M6332 2269 c-112 -14 -163 -61 -170 -156 -7 -94 28 -125 179 -163
146 -36 180 -59 164 -110 -23 -72 -192 -60 -211 15 -6 24 -9 25 -79 25 l-73 0
7 -33 c17 -71 65 -118 147 -143 89 -26 223 -13 286 29 75 50 101 176 47 233
-35 37 -64 50 -179 79 -110 27 -140 44 -140 80 0 30 21 46 67 52 53 7 110 -18
119 -51 6 -25 9 -26 75 -26 63 0 69 2 69 20 0 31 -25 74 -60 104 -49 41 -140
58 -248 45z"/>
<path d="M7590 2269 c-97 -12 -161 -58 -205 -146 -26 -51 -30 -68 -30 -143 1
-128 47 -210 147 -261 82 -42 244 -32 303 19 29 24 72 83 80 110 6 21 4 22
-59 22 -54 0 -67 -3 -75 -19 -12 -21 -79 -51 -117 -51 -37 0 -91 25 -107 52
-9 12 -19 40 -22 61 l-7 37 207 0 208 0 -7 53 c-20 158 -94 246 -224 265 -26
4 -67 5 -92 1z m104 -120 c25 -12 56 -63 56 -93 0 -14 -17 -16 -125 -16 -71 0
-125 4 -125 9 0 23 22 64 46 86 21 19 38 25 75 25 26 0 59 -5 73 -11z"/>
<path d="M8290 2270 c-49 -9 -73 -24 -114 -72 l-36 -42 0 52 0 52 -70 0 -70 0
0 -280 0 -280 74 0 74 0 4 168 c3 153 5 170 26 204 28 45 93 74 147 64 l35 -7
0 69 c0 78 -5 83 -70 72z"/>
<path d="M4360 2062 c0 -222 10 -279 58 -325 34 -32 79 -47 145 -47 60 0 110
21 148 61 l29 31 0 -41 0 -41 70 0 70 0 0 280 0 280 -74 0 -75 0 -3 -196 -3
-196 -33 -29 c-24 -22 -42 -29 -73 -29 -96 0 -109 32 -109 270 l0 180 -75 0
-75 0 0 -198z"/>
<path d="M1553 1334 c-3 -8 -1 -20 4 -25 5 -5 135 -8 324 -7 306 3 314 3 314
23 0 20 -8 20 -318 23 -282 2 -318 1 -324 -14z"/>
<path d="M1565 1226 c-11 -8 -16 -19 -12 -30 6 -14 38 -16 322 -16 284 0 316
2 322 16 15 40 -17 44 -322 44 -229 0 -295 -3 -310 -14z"/>
<path d="M1623 1113 c-19 -7 -15 -54 7 -91 35 -57 94 -76 235 -76 147 -1 203
13 246 61 24 28 29 42 27 71 l-3 37 -250 2 c-137 1 -256 -1 -262 -4z m442 -73
c-26 -29 -77 -40 -189 -40 -107 0 -166 13 -192 42 -17 17 -11 18 191 18 207 0
208 0 190 -20z"/>
</g>
</svg>
